<?xml version="1.0" encoding="UTF-8" standalone="no"?><!DOCTYPE svg PUBLIC "-//W3C//DTD SVG 1.1//EN" "http://www.w3.org/Graphics/SVG/1.1/DTD/svg11.dtd"><svg width="100%" height="100%" viewBox="0 0 118 117" version="1.1" xmlns="http://www.w3.org/2000/svg" xmlns:xlink="http://www.w3.org/1999/xlink" xml:space="preserve" xmlns:serif="http://www.serif.com/" style="fill-rule:evenodd;clip-rule:evenodd;stroke-linejoin:round;stroke-miterlimit:2;"><g id="Sunrise"><g id="Sun"><path d="M2.749,60.625l112.5,-0" style="fill:none;fill-rule:nonzero;stroke:#ffd369;stroke-width:0.75px;"/><path d="M2.749,60.625l112.5,-0" style="fill:none;stroke:#ffd369;stroke-width:4.17px;stroke-linecap:round;"/><path d="M15.249,60.625c-0,-24.163 19.587,-43.75 43.75,-43.75c24.162,-0 43.75,19.587 43.75,43.75" style="fill:none;stroke:#ffd369;stroke-width:4.17px;stroke-linecap:round;"/><path d="M58.999,2.292l-0,8.333" style="fill:none;stroke:#ffd369;stroke-width:4.17px;stroke-linecap:round;"/><path d="M29.832,10.108l4.167,7.217" style="fill:none;stroke:#ffd369;stroke-width:4.17px;stroke-linecap:round;"/><path d="M8.482,31.458l7.217,4.167" style="fill:none;stroke:#ffd369;stroke-width:4.17px;stroke-linecap:round;"/><path d="M109.516,31.458l-7.217,4.167" style="fill:none;stroke:#ffd369;stroke-width:4.17px;stroke-linecap:round;"/><path d="M88.166,10.108l-4.167,7.217" style="fill:none;stroke:#ffd369;stroke-width:4.17px;stroke-linecap:round;"/></g><g id="Sun1" serif:id="Sun"><path d="M6.916,73.125l41.666,-0" style="fill:none;fill-rule:nonzero;stroke:#ffd369;stroke-width:0.75px;"/><path d="M6.916,73.125l41.666,-0" style="fill:none;stroke:#ffd369;stroke-width:4.17px;stroke-linecap:round;"/><path d="M111.082,73.125l-41.666,-0" style="fill:none;fill-rule:nonzero;stroke:#ffd369;stroke-width:0.75px;"/><path d="M111.082,73.125l-41.666,-0" style="fill:none;stroke:#ffd369;stroke-width:4.17px;stroke-linecap:round;"/></g><g id="Arrow"><path d="M58.999,114.792l-0,-37.5" style="fill:none;fill-rule:nonzero;stroke:#ffd369;stroke-width:0.75px;"/><path d="M58.999,114.792l-0,-37.5" style="fill:none;stroke:#ffd369;stroke-width:4.17px;stroke-linecap:round;"/><path d="M48.582,89.792l10.417,-12.5l10.417,12.5" style="fill:none;stroke:#ffd369;stroke-width:4.17px;stroke-linecap:round;"/></g></g></svg>