<?xml version="1.0" encoding="UTF-8" standalone="no"?><!DOCTYPE svg PUBLIC "-//W3C//DTD SVG 1.1//EN" "http://www.w3.org/Graphics/SVG/1.1/DTD/svg11.dtd"><svg width="100%" height="100%" viewBox="0 0 118 117" version="1.1" xmlns="http://www.w3.org/2000/svg" xmlns:xlink="http://www.w3.org/1999/xlink" xml:space="preserve" xmlns:serif="http://www.serif.com/" style="fill-rule:evenodd;clip-rule:evenodd;stroke-linejoin:round;stroke-miterlimit:2;"><g id="Sunset"><g id="Sun"><path d="M2.634,60.625l112.5,-0" style="fill:none;fill-rule:nonzero;stroke:#ffd369;stroke-width:0.75px;"/><path d="M2.634,60.625l112.5,-0" style="fill:none;stroke:#ffd369;stroke-width:4.17px;stroke-linecap:round;"/><path d="M15.134,60.625c0,-24.163 19.588,-43.75 43.75,-43.75c24.163,-0 43.75,19.587 43.75,43.75" style="fill:none;stroke:#ffd369;stroke-width:4.17px;stroke-linecap:round;"/><path d="M58.884,2.292l0,8.333" style="fill:none;stroke:#ffd369;stroke-width:4.17px;stroke-linecap:round;"/><path d="M29.718,10.108l4.166,7.217" style="fill:none;stroke:#ffd369;stroke-width:4.17px;stroke-linecap:round;"/><path d="M8.368,31.458l7.216,4.167" style="fill:none;stroke:#ffd369;stroke-width:4.17px;stroke-linecap:round;"/><path d="M109.401,31.458l-7.217,4.167" style="fill:none;stroke:#ffd369;stroke-width:4.17px;stroke-linecap:round;"/><path d="M88.051,10.108l-4.167,7.217" style="fill:none;stroke:#ffd369;stroke-width:4.17px;stroke-linecap:round;"/></g><g id="Lines"><path d="M6.801,73.125l41.667,-0" style="fill:none;fill-rule:nonzero;stroke:#ffd369;stroke-width:0.75px;"/><path d="M6.801,73.125l41.667,-0" style="fill:none;stroke:#ffd369;stroke-width:4.17px;stroke-linecap:round;"/><path d="M110.968,73.125l-41.667,-0" style="fill:none;fill-rule:nonzero;stroke:#ffd369;stroke-width:0.75px;"/><path d="M110.968,73.125l-41.667,-0" style="fill:none;stroke:#ffd369;stroke-width:4.17px;stroke-linecap:round;"/></g><g id="Arrow"><path d="M58.884,77.292l0,37.5" style="fill:none;fill-rule:nonzero;stroke:#ffd369;stroke-width:0.75px;"/><path d="M58.884,77.292l0,37.5" style="fill:none;stroke:#ffd369;stroke-width:4.17px;stroke-linecap:round;"/><path d="M48.468,102.292l10.416,12.5l10.417,-12.5" style="fill:none;stroke:#ffd369;stroke-width:4.17px;stroke-linecap:round;"/></g></g></svg>