<?xml version="1.0" encoding="UTF-8" standalone="no"?><!DOCTYPE svg PUBLIC "-//W3C//DTD SVG 1.1//EN" "http://www.w3.org/Graphics/SVG/1.1/DTD/svg11.dtd"><svg width="100%" height="100%" viewBox="0 0 118 118" version="1.1" xmlns="http://www.w3.org/2000/svg" xmlns:xlink="http://www.w3.org/1999/xlink" xml:space="preserve" xmlns:serif="http://www.serif.com/" style="fill-rule:evenodd;clip-rule:evenodd;stroke-linejoin:round;stroke-miterlimit:2;"><g id="Moonset"><g id="Moon"><path d="M2.667,60.625l112.5,0" style="fill:none;fill-rule:nonzero;stroke:#d7d7d7;stroke-width:0.75px;"/><path d="M2.667,60.625l112.5,0" style="fill:none;stroke:#d7d7d7;stroke-width:4.17px;stroke-linecap:round;"/><path d="M69.334,27.292c-0,-3.45 2.8,-6.25 6.25,-6.25c3.45,-0 6.25,2.8 6.25,6.25c-0,3.45 -2.8,6.25 -6.25,6.25c-3.45,-0 -6.25,-2.8 -6.25,-6.25Z" style="fill:none;stroke:#d7d7d7;stroke-width:4.17px;stroke-linecap:round;"/><path d="M24.875,31.058l2.921,2.067c4.254,2.946 5.317,8.788 2.371,13.046c-2.95,4.254 -8.787,5.317 -13.046,2.371l-0.712,-0.396" style="fill:none;stroke:#d7d7d7;stroke-width:4.17px;stroke-linecap:round;"/><path d="M56.834,46.042c-0,2.3 -1.867,4.166 -4.167,4.166c-2.3,0 -4.167,-1.866 -4.167,-4.166c0,-2.3 1.867,-4.167 4.167,-4.167c2.3,0 4.167,1.867 4.167,4.167Z" style="fill:none;stroke:#d7d7d7;stroke-width:4.17px;stroke-linecap:round;"/><path d="M92.25,46.042c0,1.15 -0.933,2.083 -2.083,2.083c-1.15,0 -2.083,-0.933 -2.083,-2.083c-0,-1.15 0.933,-2.084 2.083,-2.084c1.15,0 2.083,0.934 2.083,2.084Z" style="fill:none;fill-rule:nonzero;stroke:#d7d7d7;stroke-width:0.75px;"/><path d="M63.084,29.375c-0,1.15 -0.934,2.083 -2.084,2.083c-1.15,0 -2.083,-0.933 -2.083,-2.083c0,-1.15 0.933,-2.083 2.083,-2.083c1.15,-0 2.084,0.933 2.084,2.083Z" style="fill:none;fill-rule:nonzero;stroke:#d7d7d7;stroke-width:0.75px;"/><path d="M42.25,37.708c0,1.15 -0.933,2.084 -2.083,2.084c-1.15,-0 -2.083,-0.934 -2.083,-2.084c-0,-1.15 0.933,-2.083 2.083,-2.083c1.15,0 2.083,0.933 2.083,2.083Z" style="fill:none;fill-rule:nonzero;stroke:#d7d7d7;stroke-width:0.75px;"/><path d="M50.584,25.208c-0,1.15 -0.934,2.084 -2.084,2.084c-1.15,-0 -2.083,-0.934 -2.083,-2.084c0,-1.15 0.933,-2.083 2.083,-2.083c1.15,0 2.084,0.933 2.084,2.083Z" style="fill:none;fill-rule:nonzero;stroke:#d7d7d7;stroke-width:0.75px;"/><path d="M79.75,50.208c0,1.15 -0.933,2.084 -2.083,2.084c-1.15,-0 -2.083,-0.934 -2.083,-2.084c-0,-1.15 0.933,-2.083 2.083,-2.083c1.15,0 2.083,0.933 2.083,2.083Z" style="fill:none;fill-rule:nonzero;stroke:#d7d7d7;stroke-width:0.75px;"/><path d="M102.667,60.625l0,-2.083c0,-24.163 -19.587,-43.75 -43.75,-43.75c-24.162,-0 -43.75,19.587 -43.75,43.75l0,2.083" style="fill:none;stroke:#d7d7d7;stroke-width:4.17px;stroke-linecap:round;"/></g><g id="Lines"><path d="M6.834,73.125l41.666,0" style="fill:none;fill-rule:nonzero;stroke:#d7d7d7;stroke-width:0.75px;"/><path d="M6.834,73.125l41.666,0" style="fill:none;stroke:#d7d7d7;stroke-width:4.17px;stroke-linecap:round;"/><path d="M111,73.125l-41.666,0" style="fill:none;fill-rule:nonzero;stroke:#d7d7d7;stroke-width:0.75px;"/><path d="M111,73.125l-41.666,0" style="fill:none;stroke:#d7d7d7;stroke-width:4.17px;stroke-linecap:round;"/></g><g id="Arrow"><path d="M58.917,77.292l0,37.5" style="fill:none;fill-rule:nonzero;stroke:#d7d7d7;stroke-width:0.75px;"/><path d="M58.917,77.292l0,37.5" style="fill:none;stroke:#d7d7d7;stroke-width:4.43px;stroke-linecap:round;"/><path d="M48.5,100.729l10.417,14.063l10.417,-14.063" style="fill:none;stroke:#d7d7d7;stroke-width:4.43px;stroke-linecap:round;"/></g></g></svg>